<svg width="236" height="196" xmlns="http://www.w3.org/2000/svg" xmlns:xlink="http://www.w3.org/1999/xlink" overflow="hidden"><defs><clipPath id="clip0"><rect x="512" y="313" width="236" height="196"/></clipPath><clipPath id="clip1"><rect x="553" y="320" width="130" height="99"/></clipPath><clipPath id="clip2"><rect x="693" y="351" width="12" height="11"/></clipPath><clipPath id="clip3"><rect x="610" y="363" width="79" height="56"/></clipPath></defs><g clip-path="url(#clip0)" transform="translate(-512 -313)"><path d="M-37.5922-37.5922 413.514-37.5922 413.514 413.514-37.5922 413.514Z" fill="#FFFFFF" transform="matrix(1 0 0 1.00266 441.082 212.72)"/><path d="M-37.5922-37.5922 413.514-37.5922 413.514 413.514-37.5922 413.514Z" fill="#FFFFFF" transform="matrix(1 0 0 1.00266 441.082 212.72)"/><path d="M-37.5922-37.5922 413.514-37.5922 413.514 413.514-37.5922 413.514Z" fill="#FFFFFF" transform="matrix(1 0 0 1.00266 441.082 212.72)"/><g clip-path="url(#clip1)"><path d="M234.936 125.104 240.696 125.104 236.236 115.948 236.216 115.905 232.042 107.334 226.653 114.558 218.798 125.104 223.971 125.104C223.2 130.515 221.888 135.821 220.075 140.939 219.241 143.285 218.305 145.587 217.263 147.843 215.211 152.303 212.756 156.575 209.933 160.597 209.894 160.734 209.854 160.871 209.811 161.004 209.714 161.059 209.62 161.118 209.522 161.173 207.239 164.364 204.721 167.395 201.98 170.23 198.499 173.833 194.657 177.126 190.491 180.035 190.412 180.09 190.334 180.149 190.256 180.2 184.448 184.225 178.011 187.518 171.021 189.899L170.438 190.099C162.387 192.774 153.611 194.25 144.229 194.254 144.205 194.254 144.182 194.254 144.158 194.254 140.172 194.254 136.452 193.118 133.303 191.148 127.543 187.546 123.714 181.159 123.714 173.883 123.714 162.97 132.324 154.061 143.148 153.533 143.481 153.517 143.821 153.509 144.158 153.509 147.804 153.509 151.23 154.461 154.195 156.129 154.061 155.021 153.995 153.893 153.995 152.746 153.995 149.942 154.402 147.236 155.162 144.675 158.655 132.916 169.58 124.332 182.514 124.332 194.054 124.332 203.996 131.165 208.484 140.99 209.616 143.465 210.399 146.128 210.775 148.92 210.947 150.173 211.033 151.45 211.033 152.746 211.033 152.82 211.033 152.894 211.033 152.965 211.186 152.699 211.342 152.425 211.495 152.158 212.212 150.882 212.893 149.586 213.535 148.274 215.435 144.405 217.013 140.387 218.258 136.268 216.762 133.057 214.843 130.081 212.576 127.41 205.351 118.913 194.563 113.517 182.514 113.517 164.262 113.517 148.9 125.903 144.444 142.698 144.35 142.698 144.256 142.694 144.158 142.694 126.874 142.694 112.855 156.662 112.855 173.883 112.855 187.299 121.368 198.745 133.303 203.143 136.663 204.38 140.297 205.061 144.084 205.069L144.158 205.069C144.19 205.069 144.221 205.069 144.252 205.069 144.26 205.069 144.268 205.069 144.276 205.069 162.621 205.05 179.616 199.842 193.85 190.741L195.103 189.927C197.735 188.184 200.268 186.305 202.696 184.3 209.204 178.919 214.937 172.634 219.726 165.601 221.116 163.561 222.424 161.458 223.65 159.297 225.436 156.145 227.041 152.867 228.455 149.48 231.443 142.318 233.573 134.658 234.716 126.611L234.932 125.096ZM144.475 205.069C144.843 205.065 144.843 205.065 144.475 205.069ZM144.272 205.073 144.256 205.073Z" fill="#D78D7C" fill-rule="evenodd" transform="matrix(1 0 0 1.00266 441.082 212.72)"/></g><path d="M183.544 180.721 183.544 148.235 171.835 148.235 171.835 186.25C175.896 184.746 179.812 182.898 183.544 180.721Z" fill="#AB5E7A" fill-rule="evenodd" transform="matrix(1 0 0 1.00266 441.082 212.72)"/><path d="M157.805 159.516 156.235 159.516 156.235 190.216C160.194 189.637 164.109 188.76 167.947 187.569L167.947 159.516Z" fill="#AB5E7A" fill-rule="evenodd" transform="matrix(1 0 0 1.00266 441.082 212.72)"/><path d="M199.145 136.953 187.432 136.953 187.432 178.285C187.769 178.062 188.106 177.831 188.439 177.6L188.666 177.443C192.421 174.815 195.93 171.851 199.141 168.593L199.141 136.949Z" fill="#D78D7C" fill-rule="evenodd" transform="matrix(1 0 0 1.00266 441.082 212.72)"/><path d="M240.613 148.066 250.419 148.066C252.067 148.066 253.411 149.409 253.411 151.05L253.411 160.82C253.411 162.461 252.067 163.804 250.419 163.804L240.613 163.804C238.965 163.804 237.614 162.461 237.614 160.82L237.614 151.05C237.614 149.409 238.965 148.066 240.613 148.066Z" fill="#D78D7C" fill-rule="evenodd" transform="matrix(1 0 0 1.00266 441.082 212.72)"/><g clip-path="url(#clip2)"><path d="M255.333 138.786 261.254 138.786C262.249 138.786 263.063 139.596 263.063 140.587L263.063 146.484C263.063 147.475 262.249 148.286 261.254 148.286L255.333 148.286C254.342 148.286 253.528 147.475 253.528 146.484L253.528 140.587C253.528 139.596 254.342 138.786 255.333 138.786Z" fill="#AB5E7A" fill-rule="evenodd" transform="matrix(1 0 0 1.00266 441.082 212.72)"/></g><path d="M247.967 133.589 251.261 133.589C251.817 133.589 252.267 134.044 252.267 134.596L252.267 137.877C252.267 138.429 251.817 138.88 251.261 138.88L247.967 138.88C247.411 138.88 246.957 138.429 246.957 137.877L246.957 134.596C246.957 134.044 247.411 133.589 247.967 133.589Z" fill="#D78D7C" fill-rule="evenodd" transform="matrix(1 0 0 1.00266 441.082 212.72)"/><path d="M256.915 132.552 258.564 132.552C258.842 132.552 259.065 132.779 259.065 133.053L259.065 134.694C259.065 134.972 258.842 135.195 258.564 135.195L256.915 135.195C256.637 135.195 256.41 134.968 256.41 134.694L256.41 133.053C256.41 132.775 256.637 132.552 256.915 132.552Z" fill="#D78D7C" fill-rule="evenodd" transform="matrix(1 0 0 1.00266 441.082 212.72)"/><g clip-path="url(#clip3)"><path d="M218.751 194.258 194.23 194.258C186.669 198.914 178.551 202.418 170.105 204.756L170.105 205.073 218.751 205.073C234.622 205.073 247.49 192.253 247.49 176.441 247.49 172.799 246.808 169.318 245.563 166.114L240.613 166.114C237.688 166.114 235.296 163.73 235.296 160.816L235.296 153.028C234.062 152.158 232.758 151.387 231.392 150.721L231.329 150.866 231.325 150.878 231.192 151.191 231.125 151.344 231.121 151.356 231.059 151.5 231.051 151.52 230.98 151.684 230.926 151.814 230.91 151.845 230.855 151.966 230.84 152.006 230.769 152.166 230.718 152.276 230.699 152.331 230.652 152.432 230.624 152.491 230.62 152.503 230.554 152.652 230.515 152.742 230.483 152.816 230.444 152.898 230.409 152.977 230.401 152.996 230.264 153.302 230.236 153.364 230.189 153.462 230.166 153.517 230.096 153.67 230.041 153.783 230.025 153.823 229.966 153.944 229.951 153.975 229.892 154.104 229.88 154.128 229.817 154.261 229.81 154.281 229.743 154.422 229.739 154.433 229.665 154.586 229.594 154.743 229.52 154.892 229.516 154.903 229.445 155.048 229.442 155.064 229.375 155.201 229.363 155.224 229.301 155.354 229.289 155.381 229.226 155.506 229.211 155.542 229.132 155.702 229.054 155.859 229.003 155.965 228.976 156.019 228.929 156.117 228.897 156.176 228.85 156.266 228.819 156.337 228.741 156.497 228.701 156.571 228.658 156.654 228.549 156.873 228.502 156.971 228.47 157.026 228.341 157.284 228.259 157.441 228.243 157.476 228.181 157.597 228.165 157.625 228.098 157.754 228.087 157.778 228.016 157.915 228.012 157.926 227.938 158.067 227.934 158.079 227.856 158.228 227.773 158.385 227.695 158.525 227.691 158.537 227.617 158.674 227.605 158.694 227.538 158.823 227.523 158.85 227.456 158.976 227.441 159.007 227.378 159.125 227.358 159.164 227.296 159.273 227.272 159.32 227.19 159.473 227.139 159.571 227.104 159.63 226.849 160.096 226.81 160.162 226.763 160.248 226.728 160.311 226.677 160.401 226.646 160.46C232.559 163.365 236.627 169.431 236.627 176.444 236.627 186.285 228.619 194.265 218.743 194.262Z" fill="#AB5E7A" fill-rule="evenodd" transform="matrix(1 0 0 1.00266 441.082 212.72)"/></g><path d="M24.9479-17.1397 24.756-11.4265 24.756 0 31.9925 0 31.9925-29.7096 21.2161-29.7096 16.9478-12.5699 12.6834-29.7096 1.90311-29.7096 1.90311 0 9.1396 0 9.1396-11.4265 8.95164-17.1397 13.216 0 20.6835 0Z" fill="#393856" transform="matrix(1 0 0 1.00266 550.211 456.228)"/><path d="M20.3781-7.61633 20.3781-10.6629C20.3781-16.568 17.3316-20.7188 10.8156-20.7188 4.30352-20.7188 0.951553-16.568 0.951553-10.6629L0.951553-9.52335C0.951553-3.61825 4.1508 0.532556 11.0466 0.532556 16.9126 0.532556 20.3781-2.28686 20.3781-6.3241L20.3781-6.47682 13.7877-6.47682C13.7877-5.52135 12.609-4.72252 11.0819-4.72252 9.33148-4.72252 8.18805-5.33339 7.96093-7.61633ZM10.6629-15.4637C12.3036-15.4637 13.1768-14.704 13.3687-12.5699L7.96093-12.5699C8.1528-14.704 9.02604-15.4637 10.6629-15.4637Z" fill="#393856" transform="matrix(1 0 0 1.00266 584.107 456.228)"/><path d="M13.4079-0.571714C13.4079 1.90311 12.378 2.51398 10.5141 2.51398 8.37992 2.51398 7.92177 1.33139 7.92177 0L1.33139 0 1.33139 0.912393C1.33139 4.94964 3.65741 8.1528 10.6629 8.1528 17.1788 8.1528 20.4173 5.33339 20.4173-0.571714L20.4173-14.473 20.7971-20.1862 14.473-20.1862 14.054-17.9777C12.9106-19.5793 11.121-20.7188 8.37992-20.7188 3.04653-20.7188 0.951553-16.7598 0.951553-11.2346L0.951553-10.0951C0.951553-4.18996 3.04653-0.610873 8.37992-0.610873 10.6276-0.610873 12.2645-1.33139 13.4079-2.51398ZM13.4079-8.18805C13.028-7.61633 11.9982-6.62562 10.4749-6.62562 8.75976-6.62562 7.92177-7.61633 7.92177-10.0951L7.92177-11.2346C7.92177-13.3296 8.75976-14.704 10.4749-14.704 11.9982-14.704 13.028-13.7133 13.4079-13.1416Z" fill="#393856" transform="matrix(1 0 0 1.00266 605.435 456.228)"/><path d="M8.91248-30.4693 1.90311-30.4693 1.90311 0 8.91248 0 8.91248-13.1416C9.29232-13.7133 10.3222-14.704 11.8455-14.704 13.7486-14.704 13.9796-13.3296 13.9796-12.378L13.9796 0 20.9851 0 20.9851-13.5214C20.9851-17.1397 19.4618-20.7188 14.704-20.7188 12.1117-20.7188 10.2086-19.8064 8.91248-18.3967Z" fill="#393856" transform="matrix(1 0 0 1.00266 627.716 456.228)"/><path d="M13.7133 0 20.0335 0 19.6537-5.71323 19.6537-12.9497C19.6537-17.9385 17.5587-20.7188 10.6629-20.7188 3.81012-20.7188 1.71514-17.5195 1.71514-13.866L1.71514-13.5214 8.30161-13.5214C8.30161-14.473 8.75976-15.4637 10.4749-15.4637 11.9982-15.4637 12.5699-14.7784 12.6443-13.3296L8.37992-12.6443C3.88453-11.959 0.951553-10.4749 0.951553-6.09307L0.951553-5.71323C0.951553-2.47482 2.47482 0.532556 7.2365 0.532556 9.90319 0.532556 11.9199-0.418996 13.3296-1.90311ZM9.90319-5.10236C8.45433-5.10236 7.92177-5.94035 7.92177-6.7431L7.92177-6.97022C7.92177-7.88261 8.26637-8.60705 9.90319-8.87332L12.6443-9.29232 12.6443-6.20663C12.0726-5.67407 11.0819-5.10236 9.90319-5.10236Z" fill="#393856" transform="matrix(1 0 0 1.00266 650.376 456.228)"/><path d="M7.42837-29.7096 0.344595 0 8.11365 0 9.29232-6.01867 15.4637-6.01867 16.6815 0 24.4153 0 17.3316-29.7096ZM12.378-21.3297 14.2067-12.2645 10.5493-12.2645Z" fill="#393856" transform="matrix(1 0 0 1.00266 671.705 456.228)"/><path d="M9.33148-29.7096 2.09498-29.7096 2.09498 0 9.33148 0Z" fill="#393856" transform="matrix(1 0 0 1.00266 696.461 456.228)"/><path d="M5.21592 0C5.12194 0 5.05145-0.0469902 5.01229-0.140971L4.73035-1.09644C4.7186-1.12777 4.69902-1.14343 4.6677-1.14343L2.17721-1.14343C2.13414-1.14343 2.11456-1.12777 2.11456-1.09644L1.83262-0.140971C1.78954-0.0469902 1.72298 0 1.62899 0L0.454239 0C0.391585 0 0.344595-0.0156634 0.313268-0.0469902 0.289773-0.0861488 0.289773-0.133138 0.313268-0.187961L2.47482-7.00154C2.50615-7.09553 2.57272-7.14252 2.67844-7.14252L4.16647-7.14252C4.26045-7.14252 4.32702-7.09553 4.37009-7.00154L6.53164-0.187961C6.53947-0.176213 6.54731-0.156634 6.54731-0.125307 6.54731-0.0939805 6.53164-0.0626536 6.50032-0.0313268 6.47682-0.00783171 6.44158 0 6.39067 0ZM2.47482-2.31818C2.46307-2.27511 2.47873-2.25553 2.52181-2.25553L4.3231-2.25553C4.36226-2.25553 4.37792-2.27511 4.37009-2.31818L3.46161-5.4352C3.44987-5.46653 3.4342-5.48219 3.41462-5.48219 3.40288-5.48219 3.38721-5.46653 3.36763-5.4352Z" fill="#393856" transform="matrix(1 0 0 1.00266 530.102 480.03)"/><path d="M3.13268 0.0783171C2.60013 0.0783171 2.13022-0.0234951 1.72298-0.234951 1.32356-0.442491 1.01812-0.728348 0.798834-1.09644 0.587378-1.47236 0.485566-1.90311 0.485566-2.3965L0.485566-4.74601C0.485566-5.23549 0.587378-5.67016 0.798834-6.04608 1.01812-6.422 1.32356-6.70786 1.72298-6.90756 2.13022-7.1151 2.60013-7.22083 3.13268-7.22083 3.65349-7.22083 4.11165-7.11902 4.51106-6.92323 4.90656-6.73527 5.21592-6.45724 5.4352-6.09307 5.65449-5.73672 5.76414-5.32948 5.76414-4.87132 5.76414-4.80867 5.70931-4.76559 5.6075-4.74601L4.51106-4.68336 4.47974-4.68336C4.38576-4.68336 4.33877-4.69902 4.33877-4.73035L4.33877-4.793C4.33877-5.14543 4.22129-5.4352 3.99417-5.65449 3.77488-5.87378 3.48511-5.98342 3.13268-5.98342 2.76459-5.98342 2.46699-5.87378 2.23987-5.65449 2.02058-5.4352 1.91094-5.14543 1.91094-4.793L1.91094-2.33385C1.91094-1.97751 2.02058-1.69165 2.23987-1.47236 2.46699-1.2609 2.76459-1.15909 3.13268-1.15909 3.48511-1.15909 3.77488-1.2609 3.99417-1.47236 4.22129-1.69165 4.33877-1.97751 4.33877-2.33385 4.33877-2.36518 4.35443-2.38867 4.38576-2.41217 4.41708-2.44349 4.45624-2.45132 4.51106-2.44349L5.59184-2.3965C5.7054-2.38475 5.76414-2.36909 5.76414-2.34951L5.76414-2.28686C5.76414-1.82479 5.65449-1.41362 5.4352-1.04945 5.21592-0.693106 4.90656-0.41508 4.51106-0.219288 4.11165-0.0195792 3.65349 0.0783171 3.13268 0.0783171Z" fill="#393856" transform="matrix(1 0 0 1.00266 538.842 480.03)"/><path d="M5.49786-7.14252C5.61142-7.14252 5.67016-7.08378 5.67016-6.97022L5.67016-6.06174C5.67016-5.94427 5.61142-5.88944 5.49786-5.88944L3.72789-5.88944C3.68482-5.88944 3.66524-5.86595 3.66524-5.82679L3.66524-0.172298C3.66524-0.0548219 3.6065 0 3.49294 0L2.41217 0C2.29469 0 2.23987-0.0548219 2.23987-0.172298L2.23987-5.82679C2.23987-5.86595 2.21637-5.88944 2.17721-5.88944L0.454239-5.88944C0.336764-5.88944 0.281941-5.94427 0.281941-6.06174L0.281941-6.97022C0.281941-7.08378 0.336764-7.14252 0.454239-7.14252Z" fill="#393856" transform="matrix(1 0 0 1.00266 546.942 480.03)"/><path d="M0.798834 0C0.681359 0 0.626536-0.0548219 0.626536-0.172298L0.626536-6.97022C0.626536-7.08378 0.681359-7.14252 0.798834-7.14252L1.87961-7.14252C2.00492-7.14252 2.06757-7.08378 2.06757-6.97022L2.06757-0.172298C2.06757-0.0548219 2.00492 0 1.87961 0Z" fill="#393856" transform="matrix(1 0 0 1.00266 554.806 480.03)"/><path d="M3.16401 0.109644C2.63145 0.109644 2.16155 0 1.7543-0.219288 1.35488-0.438576 1.04162-0.740096 0.814497-1.12777 0.59521-1.51152 0.485566-1.96184 0.485566-2.47482L0.485566-4.6677C0.485566-5.16893 0.59521-5.61142 0.814497-5.99909 1.04162-6.38284 1.35488-6.68044 1.7543-6.8919 2.16155-7.11119 2.63145-7.22083 3.16401-7.22083 3.69657-7.22083 4.16647-7.11119 4.57372-6.8919 4.98096-6.68044 5.29423-6.38284 5.51352-5.99909 5.74064-5.61142 5.85812-5.16893 5.85812-4.6677L5.85812-2.47482C5.85812-1.96184 5.74064-1.5076 5.51352-1.1121 5.29423-0.724433 4.98096-0.422912 4.57372-0.203624 4.16647 0.00391585 3.69657 0.109644 3.16401 0.109644ZM3.16401-1.12777C3.53993-1.12777 3.84145-1.24133 4.07249-1.47236 4.29961-1.71123 4.41708-2.02841 4.41708-2.42783L4.41708-4.6677C4.41708-5.0632 4.29961-5.38038 4.07249-5.62316 3.84145-5.86203 3.53993-5.98342 3.16401-5.98342 2.78809-5.98342 2.48265-5.86203 2.25553-5.62316 2.0245-5.38038 1.91094-5.0632 1.91094-4.6677L1.91094-2.42783C1.91094-2.02841 2.0245-1.71123 2.25553-1.47236 2.48265-1.24133 2.78809-1.12777 3.16401-1.12777Z" fill="#393856" transform="matrix(1 0 0 1.00266 559.386 480.03)"/><path d="M0.798834 0C0.681359 0 0.626536-0.0548219 0.626536-0.172298L0.626536-6.97022C0.626536-7.08378 0.681359-7.14252 0.798834-7.14252L1.84828-7.14252C1.93052-7.14252 1.99709-7.10336 2.05191-7.03287L4.60504-2.78809C4.61287-2.75676 4.62462-2.7411 4.63637-2.7411 4.65595-2.74893 4.6677-2.77242 4.6677-2.80375L4.6677-6.97022C4.6677-7.08378 4.72252-7.14252 4.83999-7.14252L5.92077-7.14252C6.03433-7.14252 6.09307-7.08378 6.09307-6.97022L6.09307-0.172298C6.09307-0.0548219 6.03433 0 5.92077 0L4.87132 0C4.78517 0 4.7186-0.0391585 4.6677-0.125307L2.11456-4.40142C2.09107-4.43275 2.07149-4.44058 2.05191-4.43275 2.04016-4.43275 2.03624-4.41708 2.03624-4.38576L2.05191-0.172298C2.05191-0.0548219 1.99317 0 1.87961 0Z" fill="#393856" transform="matrix(1 0 0 1.00266 567.618 480.03)"/><path d="M5.21592 0C5.12194 0 5.05145-0.0469902 5.01229-0.140971L4.73035-1.09644C4.7186-1.12777 4.69902-1.14343 4.6677-1.14343L2.17721-1.14343C2.13414-1.14343 2.11456-1.12777 2.11456-1.09644L1.83262-0.140971C1.78954-0.0469902 1.72298 0 1.62899 0L0.454239 0C0.391585 0 0.344595-0.0156634 0.313268-0.0469902 0.289773-0.0861488 0.289773-0.133138 0.313268-0.187961L2.47482-7.00154C2.50615-7.09553 2.57272-7.14252 2.67844-7.14252L4.16647-7.14252C4.26045-7.14252 4.32702-7.09553 4.37009-7.00154L6.53164-0.187961C6.53947-0.176213 6.54731-0.156634 6.54731-0.125307 6.54731-0.0939805 6.53164-0.0626536 6.50032-0.0313268 6.47682-0.00783171 6.44158 0 6.39067 0ZM2.47482-2.31818C2.46307-2.27511 2.47873-2.25553 2.52181-2.25553L4.3231-2.25553C4.36226-2.25553 4.37792-2.27511 4.37009-2.31818L3.46161-5.4352C3.44987-5.46653 3.4342-5.48219 3.41462-5.48219 3.40288-5.48219 3.38721-5.46653 3.36763-5.4352Z" fill="#393856" transform="matrix(1 0 0 1.00266 576.227 480.03)"/><path d="M4.87132-3.72789C4.84783-3.72789 4.83999-3.71614 4.83999-3.69657 4.83999-3.67307 4.84783-3.65741 4.87132-3.64957 5.50569-3.32456 5.82679-2.77634 5.82679-2.00492 5.82679-1.33531 5.59967-0.834076 5.15326-0.501229 4.70294-0.164465 4.11165 0 3.3833 0L0.798834 0C0.681359 0 0.626536-0.0548219 0.626536-0.172298L0.626536-6.97022C0.626536-7.08378 0.681359-7.14252 0.798834-7.14252L3.30498-7.14252C4.91048-7.14252 5.71714-6.48857 5.71714-5.18459 5.71714-4.4954 5.4352-4.00983 4.87132-3.72789ZM2.11456-5.90511C2.08323-5.90511 2.06757-5.88161 2.06757-5.84245L2.06757-4.27611C2.06757-4.23304 2.08323-4.21346 2.11456-4.21346L3.30498-4.21346C3.62608-4.21346 3.87278-4.28394 4.04116-4.43275 4.21737-4.58938 4.30744-4.793 4.30744-5.04362 4.30744-5.31381 4.21737-5.52135 4.04116-5.67016 3.87278-5.82679 3.62608-5.90511 3.30498-5.90511ZM3.3833-1.23741C3.69657-1.23741 3.93935-1.31573 4.11948-1.47236 4.29569-1.63683 4.38576-1.86395 4.38576-2.14589 4.38576-2.41608 4.29569-2.63145 4.11948-2.78809 3.93935-2.95255 3.68873-3.0387 3.36763-3.0387L2.11456-3.0387C2.08323-3.0387 2.06757-3.01521 2.06757-2.97605L2.06757-1.30006C2.06757-1.25699 2.08323-1.23741 2.11456-1.23741Z" fill="#393856" transform="matrix(1 0 0 1.00266 584.967 480.03)"/><path d="M0.798834 0C0.681359 0 0.626536-0.0548219 0.626536-0.172298L0.626536-6.97022C0.626536-7.08378 0.681359-7.14252 0.798834-7.14252L1.87961-7.14252C2.00492-7.14252 2.06757-7.08378 2.06757-6.97022L2.06757-1.30006C2.06757-1.25699 2.08323-1.23741 2.11456-1.23741L5.38821-1.23741C5.50177-1.23741 5.56051-1.17867 5.56051-1.06511L5.56051-0.172298C5.56051-0.0548219 5.50177 0 5.38821 0Z" fill="#393856" transform="matrix(1 0 0 1.00266 593.188 480.03)"/><path d="M5.57617-6.0774C5.57617-5.95993 5.51744-5.90511 5.40388-5.90511L2.11456-5.90511C2.08323-5.90511 2.06757-5.88161 2.06757-5.84245L2.06757-4.27611C2.06757-4.24478 2.08323-4.22912 2.11456-4.22912L4.24478-4.22912C4.37009-4.22912 4.43275-4.16647 4.43275-4.04116L4.43275-3.16401C4.43275-3.04653 4.37009-2.99171 4.24478-2.99171L2.11456-2.99171C2.08323-2.99171 2.06757-2.96822 2.06757-2.92906L2.06757-1.30006C2.06757-1.25699 2.08323-1.23741 2.11456-1.23741L5.40388-1.23741C5.51744-1.23741 5.57617-1.17867 5.57617-1.06511L5.57617-0.172298C5.57617-0.0548219 5.51744 0 5.40388 0L0.798834 0C0.681359 0 0.626536-0.0548219 0.626536-0.172298L0.626536-6.97022C0.626536-7.08378 0.681359-7.14252 0.798834-7.14252L5.40388-7.14252C5.51744-7.14252 5.57617-7.08378 5.57617-6.97022Z" fill="#393856" transform="matrix(1 0 0 1.00266 600.92 480.03)"/><path d="M0.798834 0C0.681359 0 0.626536-0.0548219 0.626536-0.172298L0.626536-6.97022C0.626536-7.08378 0.681359-7.14252 0.798834-7.14252L1.89527-7.14252C1.98925-7.14252 2.05582-7.10336 2.0989-7.03287L3.58692-4.63637C3.59475-4.61287 3.6065-4.60504 3.61825-4.60504 3.63783-4.60504 3.65349-4.61287 3.66524-4.63637L5.15326-7.03287C5.20417-7.10336 5.27074-7.14252 5.35689-7.14252L6.45333-7.14252C6.56688-7.14252 6.62562-7.08378 6.62562-6.97022L6.62562-0.172298C6.62562-0.0548219 6.56688 0 6.45333 0L5.35689 0C5.23941 0 5.18459-0.0548219 5.18459-0.172298L5.18459-4.58938C5.18459-4.62071 5.17284-4.63637 5.15326-4.63637 5.14151-4.6442 5.12977-4.63637 5.12194-4.60504L4.08815-2.92906C4.03333-2.85466 3.96676-2.81941 3.88453-2.81941L3.36763-2.81941C3.27365-2.81941 3.20317-2.85466 3.16401-2.92906L2.14589-4.60504C2.12239-4.63637 2.10281-4.6442 2.08323-4.63637 2.07149-4.63637 2.06757-4.62071 2.06757-4.58938L2.06757-0.172298C2.06757-0.0548219 2.00883 0 1.89527 0Z" fill="#393856" transform="matrix(1 0 0 1.00266 612.713 480.03)"/><path d="M5.21592 0C5.12194 0 5.05145-0.0469902 5.01229-0.140971L4.73035-1.09644C4.7186-1.12777 4.69902-1.14343 4.6677-1.14343L2.17721-1.14343C2.13414-1.14343 2.11456-1.12777 2.11456-1.09644L1.83262-0.140971C1.78954-0.0469902 1.72298 0 1.62899 0L0.454239 0C0.391585 0 0.344595-0.0156634 0.313268-0.0469902 0.289773-0.0861488 0.289773-0.133138 0.313268-0.187961L2.47482-7.00154C2.50615-7.09553 2.57272-7.14252 2.67844-7.14252L4.16647-7.14252C4.26045-7.14252 4.32702-7.09553 4.37009-7.00154L6.53164-0.187961C6.53947-0.176213 6.54731-0.156634 6.54731-0.125307 6.54731-0.0939805 6.53164-0.0626536 6.50032-0.0313268 6.47682-0.00783171 6.44158 0 6.39067 0ZM2.47482-2.31818C2.46307-2.27511 2.47873-2.25553 2.52181-2.25553L4.3231-2.25553C4.36226-2.25553 4.37792-2.27511 4.37009-2.31818L3.46161-5.4352C3.44987-5.46653 3.4342-5.48219 3.41462-5.48219 3.40288-5.48219 3.38721-5.46653 3.36763-5.4352Z" fill="#393856" transform="matrix(1 0 0 1.00266 621.862 480.03)"/><path d="M3.13268 0.0783171C2.60013 0.0783171 2.13022-0.0234951 1.72298-0.234951 1.32356-0.442491 1.01812-0.728348 0.798834-1.09644 0.587378-1.47236 0.485566-1.90311 0.485566-2.3965L0.485566-4.74601C0.485566-5.23549 0.587378-5.67016 0.798834-6.04608 1.01812-6.422 1.32356-6.70786 1.72298-6.90756 2.13022-7.1151 2.60013-7.22083 3.13268-7.22083 3.65349-7.22083 4.11165-7.11902 4.51106-6.92323 4.90656-6.73527 5.21592-6.45724 5.4352-6.09307 5.65449-5.73672 5.76414-5.32948 5.76414-4.87132 5.76414-4.80867 5.70931-4.76559 5.6075-4.74601L4.51106-4.68336 4.47974-4.68336C4.38576-4.68336 4.33877-4.69902 4.33877-4.73035L4.33877-4.793C4.33877-5.14543 4.22129-5.4352 3.99417-5.65449 3.77488-5.87378 3.48511-5.98342 3.13268-5.98342 2.76459-5.98342 2.46699-5.87378 2.23987-5.65449 2.02058-5.4352 1.91094-5.14543 1.91094-4.793L1.91094-2.33385C1.91094-1.97751 2.02058-1.69165 2.23987-1.47236 2.46699-1.2609 2.76459-1.15909 3.13268-1.15909 3.48511-1.15909 3.77488-1.2609 3.99417-1.47236 4.22129-1.69165 4.33877-1.97751 4.33877-2.33385 4.33877-2.36518 4.35443-2.38867 4.38576-2.41217 4.41708-2.44349 4.45624-2.45132 4.51106-2.44349L5.59184-2.3965C5.7054-2.38475 5.76414-2.36909 5.76414-2.34951L5.76414-2.28686C5.76414-1.82479 5.65449-1.41362 5.4352-1.04945 5.21592-0.693106 4.90656-0.41508 4.51106-0.219288 4.11165-0.0195792 3.65349 0.0783171 3.13268 0.0783171Z" fill="#393856" transform="matrix(1 0 0 1.00266 630.603 480.03)"/><path d="M4.41708-6.97022C4.41708-7.08378 4.4719-7.14252 4.58938-7.14252L5.68582-7.14252C5.79938-7.14252 5.85812-7.08378 5.85812-6.97022L5.85812-0.172298C5.85812-0.0548219 5.79938 0 5.68582 0L4.58938 0C4.4719 0 4.41708-0.0548219 4.41708-0.172298L4.41708-2.92906C4.41708-2.96822 4.39359-2.99171 4.35443-2.99171L2.11456-2.99171C2.08323-2.99171 2.06757-2.96822 2.06757-2.92906L2.06757-0.172298C2.06757-0.0548219 2.00492 0 1.87961 0L0.798834 0C0.681359 0 0.626536-0.0548219 0.626536-0.172298L0.626536-6.97022C0.626536-7.08378 0.681359-7.14252 0.798834-7.14252L1.87961-7.14252C2.00492-7.14252 2.06757-7.08378 2.06757-6.97022L2.06757-4.27611C2.06757-4.24478 2.08323-4.22912 2.11456-4.22912L4.35443-4.22912C4.39359-4.22912 4.41708-4.24478 4.41708-4.27611Z" fill="#393856" transform="matrix(1 0 0 1.00266 638.702 480.03)"/><path d="M0.798834 0C0.681359 0 0.626536-0.0548219 0.626536-0.172298L0.626536-6.97022C0.626536-7.08378 0.681359-7.14252 0.798834-7.14252L1.87961-7.14252C2.00492-7.14252 2.06757-7.08378 2.06757-6.97022L2.06757-0.172298C2.06757-0.0548219 2.00492 0 1.87961 0Z" fill="#393856" transform="matrix(1 0 0 1.00266 647.004 480.03)"/><path d="M0.798834 0C0.681359 0 0.626536-0.0548219 0.626536-0.172298L0.626536-6.97022C0.626536-7.08378 0.681359-7.14252 0.798834-7.14252L1.84828-7.14252C1.93052-7.14252 1.99709-7.10336 2.05191-7.03287L4.60504-2.78809C4.61287-2.75676 4.62462-2.7411 4.63637-2.7411 4.65595-2.74893 4.6677-2.77242 4.6677-2.80375L4.6677-6.97022C4.6677-7.08378 4.72252-7.14252 4.83999-7.14252L5.92077-7.14252C6.03433-7.14252 6.09307-7.08378 6.09307-6.97022L6.09307-0.172298C6.09307-0.0548219 6.03433 0 5.92077 0L4.87132 0C4.78517 0 4.7186-0.0391585 4.6677-0.125307L2.11456-4.40142C2.09107-4.43275 2.07149-4.44058 2.05191-4.43275 2.04016-4.43275 2.03624-4.41708 2.03624-4.38576L2.05191-0.172298C2.05191-0.0548219 1.99317 0 1.87961 0Z" fill="#393856" transform="matrix(1 0 0 1.00266 651.586 480.03)"/><path d="M5.57617-6.0774C5.57617-5.95993 5.51744-5.90511 5.40388-5.90511L2.11456-5.90511C2.08323-5.90511 2.06757-5.88161 2.06757-5.84245L2.06757-4.27611C2.06757-4.24478 2.08323-4.22912 2.11456-4.22912L4.24478-4.22912C4.37009-4.22912 4.43275-4.16647 4.43275-4.04116L4.43275-3.16401C4.43275-3.04653 4.37009-2.99171 4.24478-2.99171L2.11456-2.99171C2.08323-2.99171 2.06757-2.96822 2.06757-2.92906L2.06757-1.30006C2.06757-1.25699 2.08323-1.23741 2.11456-1.23741L5.40388-1.23741C5.51744-1.23741 5.57617-1.17867 5.57617-1.06511L5.57617-0.172298C5.57617-0.0548219 5.51744 0 5.40388 0L0.798834 0C0.681359 0 0.626536-0.0548219 0.626536-0.172298L0.626536-6.97022C0.626536-7.08378 0.681359-7.14252 0.798834-7.14252L5.40388-7.14252C5.51744-7.14252 5.57617-7.08378 5.57617-6.97022Z" fill="#393856" transform="matrix(1 0 0 1.00266 660.194 480.03)"/><path d="M0.798834 0C0.681359 0 0.626536-0.0548219 0.626536-0.172298L0.626536-6.97022C0.626536-7.08378 0.681359-7.14252 0.798834-7.14252L1.87961-7.14252C2.00492-7.14252 2.06757-7.08378 2.06757-6.97022L2.06757-0.172298C2.06757-0.0548219 2.00492 0 1.87961 0Z" fill="#393856" transform="matrix(1 0 0 1.00266 671.987 480.03)"/><path d="M0.798834 0C0.681359 0 0.626536-0.0548219 0.626536-0.172298L0.626536-6.97022C0.626536-7.08378 0.681359-7.14252 0.798834-7.14252L1.84828-7.14252C1.93052-7.14252 1.99709-7.10336 2.05191-7.03287L4.60504-2.78809C4.61287-2.75676 4.62462-2.7411 4.63637-2.7411 4.65595-2.74893 4.6677-2.77242 4.6677-2.80375L4.6677-6.97022C4.6677-7.08378 4.72252-7.14252 4.83999-7.14252L5.92077-7.14252C6.03433-7.14252 6.09307-7.08378 6.09307-6.97022L6.09307-0.172298C6.09307-0.0548219 6.03433 0 5.92077 0L4.87132 0C4.78517 0 4.7186-0.0391585 4.6677-0.125307L2.11456-4.40142C2.09107-4.43275 2.07149-4.44058 2.05191-4.43275 2.04016-4.43275 2.03624-4.41708 2.03624-4.38576L2.05191-0.172298C2.05191-0.0548219 1.99317 0 1.87961 0Z" fill="#393856" transform="matrix(1 0 0 1.00266 676.567 480.03)"/><path d="M3.0387 0.0783171C2.50615 0.0783171 2.03624-0.00783171 1.62899-0.187961 1.22958-0.364174 0.924141-0.610873 0.704854-0.924141 0.493398-1.24524 0.391585-1.62116 0.391585-2.05191L0.391585-2.2242C0.391585-2.33776 0.446407-2.3965 0.563883-2.3965L1.62899-2.3965C1.74255-2.3965 1.80129-2.35343 1.80129-2.27119L1.80129-2.11456C1.80129-1.84045 1.9266-1.61333 2.17721-1.42537 2.42783-1.24524 2.74893-1.15909 3.14835-1.15909 3.51252-1.15909 3.7788-1.22958 3.94718-1.37838 4.12339-1.53501 4.21346-1.72298 4.21346-1.94226 4.21346-2.10673 4.15472-2.24378 4.04116-2.34951 3.93543-2.46307 3.79055-2.56097 3.60258-2.64712 3.42245-2.7411 3.13268-2.85857 2.72543-3.00738 2.26336-3.16401 1.87961-3.32064 1.56634-3.47728 1.25307-3.64174 0.986795-3.86886 0.767507-4.1508 0.548219-4.43275 0.438576-4.78126 0.438576-5.20025 0.438576-5.6075 0.540387-5.95993 0.751844-6.26536 0.959384-6.57863 1.25307-6.81358 1.62899-6.97022 2.01275-7.13468 2.44741-7.22083 2.92906-7.22083 3.43812-7.22083 3.90019-7.12685 4.30744-6.93889 4.71469-6.75876 5.03187-6.50423 5.26291-6.17138 5.49003-5.84637 5.6075-5.46653 5.6075-5.02796L5.6075-4.91831C5.6075-4.80084 5.54876-4.74601 5.4352-4.74601L4.37009-4.74601C4.25262-4.74601 4.19779-4.78126 4.19779-4.85566L4.19779-4.94964C4.19779-5.23941 4.0764-5.48611 3.83754-5.68582 3.6065-5.88161 3.28932-5.98342 2.88207-5.98342 2.5453-5.98342 2.29077-5.91294 2.11456-5.7798 1.93443-5.64274 1.84828-5.45478 1.84828-5.21592 1.84828-5.04753 1.89919-4.90656 2.00492-4.793 2.10673-4.67553 2.26336-4.57372 2.47482-4.47974 2.68236-4.38576 2.99954-4.26045 3.43029-4.10381 3.90802-3.92368 4.28394-3.76705 4.55805-3.63391 4.83999-3.5086 5.09061-3.3089 5.3099-3.0387 5.53702-2.76459 5.65449-2.41608 5.65449-1.98925 5.65449-1.57026 5.54485-1.20608 5.32556-0.892814 5.1141-0.579546 4.81258-0.336764 4.41708-0.172298 4.02941-0.00391585 3.57126 0.0783171 3.0387 0.0783171Z" fill="#393856" transform="matrix(1 0 0 1.00266 685.176 480.03)"/><path d="M0.798834 0C0.681359 0 0.626536-0.0548219 0.626536-0.172298L0.626536-6.97022C0.626536-7.08378 0.681359-7.14252 0.798834-7.14252L1.87961-7.14252C2.00492-7.14252 2.06757-7.08378 2.06757-6.97022L2.06757-0.172298C2.06757-0.0548219 2.00492 0 1.87961 0Z" fill="#393856" transform="matrix(1 0 0 1.00266 693.11 480.03)"/><path d="M3.13268 0.0783171C2.60796 0.0783171 2.14589-0.0234951 1.73864-0.234951 1.33922-0.442491 1.03379-0.73618 0.814497-1.1121 0.59521-1.48802 0.485566-1.9266 0.485566-2.42783L0.485566-4.71469C0.485566-5.20417 0.59521-5.63883 0.814497-6.01475 1.03379-6.3985 1.33922-6.69611 1.73864-6.90756 2.14589-7.1151 2.60796-7.22083 3.13268-7.22083 3.64174-7.22083 4.09598-7.1151 4.4954-6.90756 4.90265-6.70786 5.21592-6.42983 5.4352-6.0774 5.65449-5.73281 5.76414-5.34514 5.76414-4.91831L5.76414-4.88698C5.76414-4.76951 5.7054-4.71469 5.59184-4.71469L4.4954-4.71469C4.44058-4.71469 4.40142-4.72252 4.37009-4.74601 4.33877-4.76559 4.3231-4.78517 4.3231-4.80867L4.3231-4.87132C4.3231-5.18459 4.21346-5.44304 3.99417-5.65449 3.77488-5.87378 3.48511-5.98342 3.13268-5.98342 2.76459-5.98342 2.46699-5.86595 2.23987-5.63883 2.02058-5.41954 1.91094-5.12194 1.91094-4.74601L1.91094-2.38084C1.91094-2.01275 2.02841-1.71514 2.27119-1.48802 2.51006-1.26874 2.81158-1.15909 3.17967-1.15909 3.5321-1.15909 3.81404-1.24524 4.0255-1.42537 4.23304-1.61333 4.33877-1.87178 4.33877-2.20854L4.33877-2.66278C4.33877-2.70194 4.31527-2.72543 4.27611-2.72543L3.19534-2.72543C3.07786-2.72543 3.02304-2.78026 3.02304-2.89773L3.02304-3.72789C3.02304-3.84145 3.07786-3.90019 3.19534-3.90019L5.59184-3.90019C5.7054-3.90019 5.76414-3.84145 5.76414-3.72789L5.76414-2.44349C5.76414-1.91877 5.65449-1.46453 5.4352-1.08078 5.21592-0.704854 4.90656-0.41508 4.51106-0.219288 4.11165-0.0195792 3.65349 0.0783171 3.13268 0.0783171Z" fill="#393856" transform="matrix(1 0 0 1.00266 697.692 480.03)"/><path d="M4.41708-6.97022C4.41708-7.08378 4.4719-7.14252 4.58938-7.14252L5.68582-7.14252C5.79938-7.14252 5.85812-7.08378 5.85812-6.97022L5.85812-0.172298C5.85812-0.0548219 5.79938 0 5.68582 0L4.58938 0C4.4719 0 4.41708-0.0548219 4.41708-0.172298L4.41708-2.92906C4.41708-2.96822 4.39359-2.99171 4.35443-2.99171L2.11456-2.99171C2.08323-2.99171 2.06757-2.96822 2.06757-2.92906L2.06757-0.172298C2.06757-0.0548219 2.00492 0 1.87961 0L0.798834 0C0.681359 0 0.626536-0.0548219 0.626536-0.172298L0.626536-6.97022C0.626536-7.08378 0.681359-7.14252 0.798834-7.14252L1.87961-7.14252C2.00492-7.14252 2.06757-7.08378 2.06757-6.97022L2.06757-4.27611C2.06757-4.24478 2.08323-4.22912 2.11456-4.22912L4.35443-4.22912C4.39359-4.22912 4.41708-4.24478 4.41708-4.27611Z" fill="#393856" transform="matrix(1 0 0 1.00266 705.78 480.03)"/><path d="M5.49786-7.14252C5.61142-7.14252 5.67016-7.08378 5.67016-6.97022L5.67016-6.06174C5.67016-5.94427 5.61142-5.88944 5.49786-5.88944L3.72789-5.88944C3.68482-5.88944 3.66524-5.86595 3.66524-5.82679L3.66524-0.172298C3.66524-0.0548219 3.6065 0 3.49294 0L2.41217 0C2.29469 0 2.23987-0.0548219 2.23987-0.172298L2.23987-5.82679C2.23987-5.86595 2.21637-5.88944 2.17721-5.88944L0.454239-5.88944C0.336764-5.88944 0.281941-5.94427 0.281941-6.06174L0.281941-6.97022C0.281941-7.08378 0.336764-7.14252 0.454239-7.14252Z" fill="#393856" transform="matrix(1 0 0 1.00266 714.083 480.03)"/><path d="M3.0387 0.0783171C2.50615 0.0783171 2.03624-0.00783171 1.62899-0.187961 1.22958-0.364174 0.924141-0.610873 0.704854-0.924141 0.493398-1.24524 0.391585-1.62116 0.391585-2.05191L0.391585-2.2242C0.391585-2.33776 0.446407-2.3965 0.563883-2.3965L1.62899-2.3965C1.74255-2.3965 1.80129-2.35343 1.80129-2.27119L1.80129-2.11456C1.80129-1.84045 1.9266-1.61333 2.17721-1.42537 2.42783-1.24524 2.74893-1.15909 3.14835-1.15909 3.51252-1.15909 3.7788-1.22958 3.94718-1.37838 4.12339-1.53501 4.21346-1.72298 4.21346-1.94226 4.21346-2.10673 4.15472-2.24378 4.04116-2.34951 3.93543-2.46307 3.79055-2.56097 3.60258-2.64712 3.42245-2.7411 3.13268-2.85857 2.72543-3.00738 2.26336-3.16401 1.87961-3.32064 1.56634-3.47728 1.25307-3.64174 0.986795-3.86886 0.767507-4.1508 0.548219-4.43275 0.438576-4.78126 0.438576-5.20025 0.438576-5.6075 0.540387-5.95993 0.751844-6.26536 0.959384-6.57863 1.25307-6.81358 1.62899-6.97022 2.01275-7.13468 2.44741-7.22083 2.92906-7.22083 3.43812-7.22083 3.90019-7.12685 4.30744-6.93889 4.71469-6.75876 5.03187-6.50423 5.26291-6.17138 5.49003-5.84637 5.6075-5.46653 5.6075-5.02796L5.6075-4.91831C5.6075-4.80084 5.54876-4.74601 5.4352-4.74601L4.37009-4.74601C4.25262-4.74601 4.19779-4.78126 4.19779-4.85566L4.19779-4.94964C4.19779-5.23941 4.0764-5.48611 3.83754-5.68582 3.6065-5.88161 3.28932-5.98342 2.88207-5.98342 2.5453-5.98342 2.29077-5.91294 2.11456-5.7798 1.93443-5.64274 1.84828-5.45478 1.84828-5.21592 1.84828-5.04753 1.89919-4.90656 2.00492-4.793 2.10673-4.67553 2.26336-4.57372 2.47482-4.47974 2.68236-4.38576 2.99954-4.26045 3.43029-4.10381 3.90802-3.92368 4.28394-3.76705 4.55805-3.63391 4.83999-3.5086 5.09061-3.3089 5.3099-3.0387 5.53702-2.76459 5.65449-2.41608 5.65449-1.98925 5.65449-1.57026 5.54485-1.20608 5.32556-0.892814 5.1141-0.579546 4.81258-0.336764 4.41708-0.172298 4.02941-0.00391585 3.57126 0.0783171 3.0387 0.0783171Z" fill="#393856" transform="matrix(1 0 0 1.00266 721.947 480.03)"/></g></svg>